<?xml version="1.0" encoding="UTF-8"?>
<svg width="400" height="200" version="1.1" xmlns="http://www.w3.org/2000/svg">
 <path d="m206.01 72.95v16.6h-5.3124v-16.6c-2.5398 0-5.8552-0.0116-7.1077-0.0582l-17.628 0.0465c-1.489 0.0776-3.0246-0.26756-4.4089-1.0625-2.6756-1.5433-4.118-4.4011-4.0017-7.2706 4e-3 -0.42266 0.0543-0.79491 0.1047-1.0896 0.6243-3.5131 1.8613-6.9759 3.7419-10.229 1.8845-3.2727 4.2809-6.084 7.0301-8.3873 1.8419-1.3649 4.4244-2.0435 6.7975-1.6286 0.67083-2.2684 2.2451-4.1413 4.2925-5.2115 0.39164-0.2249 0.75226-0.37613 1.0547-0.4847 3.994-1.4464 8.302-2.2296 12.777-2.2296 4.5019 0 8.8255 0.79104 12.843 2.2529 2.3111 1.0043 4.3701 3.1021 5.2348 5.6032 2.2645-0.5196 4.6105-0.0116 6.4601 1.3882 2.7415 2.3072 5.5373 5.4209 7.4218 8.6936 1.8768 3.2533 3.1137 6.7122 3.7419 10.229 0.0543 0.2947 0.0969 0.66695 0.0969 1.0896 0.12021 2.8694-1.3184 5.7273-3.9978 7.2706-1.3843 0.79491-2.916 1.14-4.4089 1.0625l-17.624-0.0465c-1.2564 0.0504-4.564 0.062-7.1077 0.062zm18.857-23.987v9e-5c-0.031-0.0233-0.062-0.0465-0.0853-0.0698-0.8415-0.63593-2.0164-0.74838-2.9858-0.18612-0.50799 0.29468-0.88412 0.72898-1.1129 1.2292l-8.9302 15.557c-0.27534 0.4071-0.30248 0.95774-0.0388 1.4153 0.2637 0.46144 0.77169 0.70958 1.2719 0.66308l17.934 0.0504c0.5273 0.04653 1.0818-0.0698 1.5743-0.35675 0.93843-0.539 1.4231-1.551 1.3417-2.5631 8e-3 -0.06979 8e-3 -0.1551-0.0155-0.2598-0.5234-2.9159-1.5471-5.7931-3.1137-8.5036-1.5743-2.7221-3.5597-5.0603-5.8397-6.9759zm-42.937-0.0659 2e-4 1e-5c-0.0271 0.0194-0.0543 0.0426-0.0814 0.0698-2.2801 1.9155-4.2693 4.2537-5.8436 6.9758-1.5666 2.7104-2.5903 5.5876-3.1099 8.5036-0.0234 0.10469-0.0274 0.1861-0.0194 0.2598-0.0853 1.0121 0.40719 2.0241 1.3417 2.5631 0.4963 0.28694 1.0431 0.40324 1.5782 0.35674l17.93-0.0504c0.50017 0.04653 1.0081-0.20164 1.2757-0.66308 0.26371-0.45753 0.22493-1.0082-0.0465-1.4153l-8.9263-15.557c-0.22492-0.5002-0.60105-0.9345-1.1129-1.2292-0.9694-0.55837-2.1444-0.4498-2.9858 0.18613zm32.576-6.2585-2.2e-4 3e-5c-0.0388-0.0155-0.0854-0.0349-0.12796-0.0504-3.4394-1.2486-7.1541-1.9311-11.024-1.9311-3.8507 0-7.5422 0.6748-10.97 1.9156-0.1202 0.04657-0.21324 0.08917-0.28694 0.14347-1.1284 0.5274-1.9039 1.6713-1.9039 3.0013 0 0.7019 0.21715 1.3572 0.5894 1.8962l11.075 19.066c0.2637 0.56226 0.83373 0.9539 1.4968 0.9539 0.64759 0 1.2098-0.37225 1.4774-0.919l11.082-19.07c0.39164-0.5506 0.62042-1.2176 0.62042-1.9427 0-1.3727-0.8298-2.5592-2.028-3.0633zm-11.152-34.359c29.92 0 54.178 24.255 54.178 54.174 0 29.924-24.258 54.174-54.178 54.174-29.924-4e-3 -54.174-24.251-54.174-54.174 0-29.92 24.251-54.174 54.174-54.174zm0 5.1611c-27.074 0-49.017 21.944-49.017 49.013s21.944 49.017 49.017 49.017c27.074 0 49.013-21.944 49.013-49.017-4e-3 -27.07-21.944-49.013-49.013-49.013zm97.398 130.34-4.3313 5e-4v16.208h4.3313c4.9168 0 8.8914-3.9784 8.8914-8.8875s-4.498-7.321-8.8914-7.321zm28.551 33.949v0.44592c0-0.14734 8e-3 -0.2947 0-0.44592zm0 0.4498v13.541h-19.675v-13.106c8e-3 -0.14348 0.0155-0.28695 0.0155-0.4343 0-4.9091-3.9823-8.8875-8.8914-8.8875h-4.3313v22.428h-20.342v-54.159h39.684c7.4761 0 13.541 6.0607 13.541 13.537s-6.0607 13.537-13.541 13.537c7.3326 0 13.308 5.8242 13.541 13.095 8e-3 0.15122 0 0.29857 0 0.4498zm60.708-9.0734h-33.192v13.727h33.192v8.8913h-53.201v-54.178h53.201v8.8913h-33.192v13.777h33.192zm-154.11-8.8913h33.169v8.8913h-33.169v22.618h-20.005v-54.178h53.174v8.8913h-33.169zm-55.494-16.444-4.3391 3e-4v16.212h4.3391c5.0254 0 8.8914-3.9784 8.8914-8.8875 0-4.9129-4.3817-7.3248-8.8914-7.3248zm12.761-6.2042c8.7208 0 15.794 7.0689 15.794 15.79s-7.0728 15.79-15.794 15.79h-17.438v22.568h-20.001v-54.147zm-77.048 8.0942-8.1236 28.28h16.247zm-33.231 46.062 15.557-54.178h35.348l15.561 54.178h-20.005l-2.5515-8.8914h-21.35l-2.5554 8.8914zm-72.889 1e-3v-54.177h20.005l13.226 27.085 13.226-27.085 20.005 4e-3v54.174h-20.005v-27.093l-13.226 27.093-13.226-27.093v27.093z" fill="#be002f"/>
</svg>
